<svg xmlns="http://www.w3.org/2000/svg" width="933.333" height="933.333" version="1" viewBox="0 0 700 700"><path d="M401.1 85.1c-1.3.5-3.5 2.1-4.7 3.4-2.6 2.8-2.8 3.5-20.9 65-7 23.6-13.3 45-14.1 47.5-.7 2.5-4.3 14.6-7.9 27-3.7 12.4-8.4 28.3-10.5 35.5-2.1 7.1-5 17-6.5 22-1.4 4.9-4.2 14.2-6 20.5-1.9 6.3-5.9 19.8-8.9 30-4.7 16.1-18.9 64.3-26.1 88.5-12 40.6-19 64.3-21 71-1.2 4.4-7.9 27.2-14.9 50.7-7 23.5-12.7 44.3-12.8 46-.1 3.8 2 8.4 5.1 11.2 2.5 2.3 36.1 12.6 41.1 12.6 8.9 0 12.5-4.6 17.8-23 4.8-16.5 17.9-61.1 22.7-77 2.4-8 8-27.1 12.5-42.5 4.5-15.4 8.4-28.7 8.7-29.5.3-.8.7-2 .8-2.5.2-.6 3.7-12.7 8-27 4.2-14.3 8.8-29.7 10.1-34.3 5.6-19 14.5-49.4 20.1-68.2 1.4-4.7 2.6-9 2.7-9.5.2-.6.6-1.7.9-2.5.3-.8 1.5-4.9 2.7-9 3.3-11.6 6.3-21.8 12.5-42.5 3.1-10.5 8.7-29.6 12.5-42.5 10.4-35.2 23.8-80.6 26.1-88.1 3.3-11 2.4-17-3.5-21.7-3.1-2.4-36-12.2-40.7-12.1-1.9 0-4.5.5-5.8 1zM190.4 157c-1.7.4-4.7 1.9-6.5 3.3-5.7 4.5-181.5 181.1-182.4 183.2C0 347.1-.1 351 1 354.6c.9 2.7 23.2 25.6 91.9 94.3 49.8 49.9 91.8 91.5 93.3 92.5 3 1.9 9 2.3 13 .7 3.1-1.2 41.4-38.9 45.2-44.5 3-4.4 3.4-9.2 1.1-13.9-.8-1.8-30.9-32.6-66.8-68.5l-65.3-65.3 65.6-65.7c51.2-51.2 66-66.5 66.9-69.4 1.5-4.5.7-10.4-1.7-13.2-2.5-3-40.4-40.9-42.4-42.5-2.5-1.9-7.8-2.8-11.4-2.1zM499.5 158.6c-1.6.8-12.2 10.9-23.6 22.3-16.6 16.7-21 21.6-21.9 24.9-2.8 9.1-6.1 5.3 66.4 77.8l66.3 66.3-64.9 64.8c-35.7 35.6-65.6 66.1-66.5 67.8-2.3 4-2.7 7.9-1.3 12 1.4 4.1 42.6 46 46.8 47.6 4.2 1.6 9.9 1.3 12.9-.7 1.6-.9 43.8-42.8 93.9-92.9 98.8-98.8 93.5-92.9 91.8-102.2-.6-3.4-10.9-14-91.6-94.7-49.9-50.1-92.1-91.8-93.6-92.8-3.4-2.2-10.6-2.3-14.7-.2z"/></svg>