<svg xmlns="http://www.w3.org/2000/svg" style="display:none;">
	<symbol id="github" viewBox="0 0 150 150">
		<path d="M0 76.841c0 6.797.636 12.946 1.908 18.448 1.27 5.5 3.031 10.28 5.28 14.34a40.389 40.389 0 0 0 8.583 10.709c3.471 3.08 7.237 5.599 11.295 7.555 4.059 1.955 8.692 3.544 13.9 4.767a114.821 114.821 0 0 0 15.953 2.568c5.428.489 11.394.733 17.898.733 6.552 0 12.542-.244 17.97-.733a115.973 115.973 0 0 0 15.99-2.568c5.233-1.222 9.89-2.812 13.973-4.767 4.084-1.957 7.873-4.475 11.37-7.555a40.65 40.65 0 0 0 8.655-10.71c2.274-4.058 4.047-8.838 5.318-14.34 1.271-5.5 1.907-11.65 1.907-18.447 0-12.127-4.059-22.616-12.175-31.467.44-1.174.843-2.506 1.21-3.997.367-1.492.709-3.619 1.027-6.382.317-2.763.195-5.953-.367-9.572-.562-3.619-1.602-7.31-3.118-11.076l-1.1-.22c-.783-.147-2.067-.11-3.851.11-1.785.22-3.864.66-6.235 1.32-2.372.66-5.428 1.932-9.169 3.815-3.74 1.882-7.69 4.242-11.846 7.078-7.14-1.956-16.944-2.934-29.413-2.934-12.42 0-22.2.978-29.34 2.934-4.156-2.836-8.13-5.196-11.92-7.078-3.789-1.883-6.808-3.154-9.058-3.815-2.249-.66-4.352-1.088-6.308-1.283-1.956-.196-3.19-.257-3.704-.184-.513.073-.917.16-1.21.257-1.516 3.765-2.555 7.457-3.118 11.076-.562 3.619-.684 6.81-.366 9.572.318 2.763.66 4.89 1.027 6.382.366 1.491.77 2.823 1.21 3.997C4.059 54.225 0 64.714 0 76.841zm18.41 18.411c0-7.041 3.204-13.496 9.61-19.364 1.906-1.761 4.132-3.093 6.674-3.998 2.543-.905 5.416-1.418 8.619-1.54a95.544 95.544 0 0 1 9.205.073c2.934.17 6.553.403 10.856.696 4.303.294 8.02.44 11.149.44 3.13 0 6.846-.146 11.15-.44 4.303-.293 7.92-.525 10.856-.696a95.539 95.539 0 0 1 9.205-.074c3.203.123 6.075.636 8.619 1.54 2.542.906 4.767 2.238 6.674 3.999 6.406 5.77 9.61 12.225 9.61 19.364 0 4.206-.527 7.934-1.578 11.186-1.052 3.252-2.397 5.978-4.035 8.178-1.638 2.2-3.912 4.072-6.821 5.612-2.91 1.54-5.746 2.726-8.509 3.558-2.763.83-6.308 1.479-10.636 1.944-4.328.464-8.19.746-11.59.843-3.398.098-7.713.147-12.945.147s-9.548-.049-12.946-.147c-3.399-.098-7.262-.379-11.59-.843-4.327-.465-7.872-1.113-10.635-1.944-2.763-.832-5.6-2.018-8.509-3.558-2.909-1.54-5.183-3.41-6.821-5.612-1.638-2.2-2.983-4.926-4.034-8.178-1.052-3.252-1.577-6.981-1.577-11.186zm75.34-1.479c0 7.767 4.197 14.063 9.375 14.063s9.375-6.296 9.375-14.063c0-7.766-4.197-14.062-9.375-14.062s-9.375 6.296-9.375 14.062zm-56.25 0c0 7.767 4.197 14.063 9.375 14.063s9.375-6.296 9.375-14.063c0-7.766-4.197-14.062-9.375-14.062S37.5 86.007 37.5 93.773z"/>
	</symbol>
	<symbol id="reddit" viewBox="0 0 150 150">
		<path d="M150 71.39c0-10.348-8.419-18.767-18.767-18.767-5.774 0-11.085 2.58-14.627 7.005-9.937-4.52-21.267-7.306-33.252-8.188l10.298-32.543 23 4.983c1.762 6.854 7.99 11.935 15.385 11.935 8.76 0 15.886-7.126 15.886-15.886 0-8.759-7.126-15.886-15.886-15.886-6.327 0-11.795 3.722-14.348 9.09L91.15 7.38a5.363 5.363 0 0 0-6.247 3.623l-12.71 40.165c-14.03.342-27.34 3.246-38.798 8.458-3.542-4.424-8.853-7.004-14.627-7.004C8.419 52.623 0 61.042 0 71.39a18.65 18.65 0 0 0 5.481 13.249c-2.091 4.488-3.15 9.156-3.15 13.907 0 12.894 7.719 24.929 21.736 33.887 13.645 8.72 31.734 13.524 50.933 13.524 19.2 0 37.288-4.803 50.933-13.524 14.017-8.958 21.736-20.993 21.736-33.887 0-4.75-1.059-9.419-3.15-13.907A18.65 18.65 0 0 0 150 71.39zM8.24 77.823a12.175 12.175 0 0 1-1.806-6.433c0-6.8 5.532-12.333 12.333-12.333 2.919 0 5.661.993 7.855 2.82-7.84 4.451-14.012 9.806-18.381 15.946zm28.243 10.866c0-7.391 6.013-13.405 13.405-13.405 7.391 0 13.405 6.014 13.405 13.405 0 7.392-6.014 13.405-13.405 13.405-7.392 0-13.405-6.013-13.405-13.405zm66.016 30.593c-5.225 5.703-15.762 9.246-27.499 9.246-11.736 0-22.273-3.543-27.498-9.246a5.328 5.328 0 0 1-1.404-3.857 5.326 5.326 0 0 1 1.735-3.72 5.348 5.348 0 0 1 3.622-1.408c1.5 0 2.94.634 3.953 1.74 3.111 3.395 11.167 5.767 19.592 5.767 8.425 0 16.481-2.372 19.592-5.767a5.374 5.374 0 0 1 3.954-1.74c1.345 0 2.63.5 3.622 1.409a5.323 5.323 0 0 1 1.734 3.72 5.326 5.326 0 0 1-1.403 3.856zm-2.387-17.188c-7.391 0-13.405-6.013-13.405-13.405 0-7.391 6.014-13.405 13.405-13.405 7.392 0 13.405 6.014 13.405 13.405 0 7.392-6.013 13.405-13.405 13.405zm41.647-24.271c-4.368-6.14-10.54-11.494-18.38-15.946 2.193-1.828 4.935-2.82 7.854-2.82 6.8 0 12.333 5.533 12.333 12.333 0 2.31-.62 4.508-1.807 6.433z"/>
	</symbol>
	<symbol id="twitter" viewBox="0 0 150 150">
		<path d="M150 28.48a61.529 61.529 0 0 1-17.675 4.845c6.354-3.808 11.234-9.839 13.532-17.026a61.61 61.61 0 0 1-19.543 7.468 30.733 30.733 0 0 0-22.463-9.717c-16.995 0-30.774 13.777-30.774 30.773 0 2.412.272 4.76.797 7.013-25.576-1.284-48.252-13.535-63.43-32.154a30.629 30.629 0 0 0-4.167 15.471c0 10.677 5.432 20.097 13.69 25.615a30.649 30.649 0 0 1-13.939-3.85c-.003.13-.003.258-.003.388 0 14.91 10.609 27.348 24.686 30.176a30.833 30.833 0 0 1-13.898.527c3.917 12.225 15.282 21.124 28.748 21.371-10.532 8.255-23.801 13.174-38.22 13.174-2.484 0-4.933-.145-7.341-.43 13.619 8.732 29.795 13.827 47.174 13.827 56.605 0 87.559-46.894 87.559-87.56 0-1.335-.03-2.662-.09-3.982A62.515 62.515 0 0 0 150 28.48z"/>
</symbol>
<symbol id="vkontakte" viewBox="0 0 150 150">
<path d="M143.479 99.274c-3.266-3.92-6.978-7.434-10.567-10.832a349.398 349.398 0 0 1-3.868-3.7c-3.652-3.57-3.785-4.912-.893-8.968 2-2.795 4.121-5.595 6.172-8.302 1.86-2.456 3.785-4.996 5.629-7.545l.378-.524c3.525-4.876 7.17-9.919 9.11-16.002.503-1.604 1.032-3.966-.177-5.941-1.209-1.973-3.553-2.575-5.212-2.856-.82-.14-1.635-.158-2.39-.158l-23.081-.017-.19-.002c-3.49 0-5.842 1.645-7.19 5.028-1.287 3.233-2.7 6.676-4.313 9.95-3.209 6.517-7.285 14.025-13.183 20.286l-.25.266c-.696.749-1.485 1.597-2.062 1.597a.981.981 0 0 1-.293-.052c-1.222-.476-2.042-3.433-2.005-4.809l.001-.057-.016-26.676c0-.093-.007-.184-.019-.276-.587-4.336-1.887-7.036-6.801-7.998a2.033 2.033 0 0 0-.397-.039h-24c-3.91 0-6.064 1.59-8.089 3.968-.546.636-1.684 1.96-1.12 3.565.572 1.63 2.43 1.978 3.034 2.091 3.003.572 4.695 2.408 5.175 5.617.836 5.572.94 11.52.323 18.718-.172 2-.511 3.545-1.071 4.865-.13.308-.591 1.313-1.062 1.314-.15 0-.581-.059-1.369-.601-1.862-1.276-3.224-3.096-4.812-5.344-5.402-7.634-9.936-16.045-13.862-25.717-1.456-3.561-4.176-5.554-7.661-5.613-3.83-.058-7.303-.086-10.614-.086-3.619 0-6.974.033-10.25.101-2.804.05-4.743.89-5.764 2.5-1.022 1.612-.956 3.729.198 6.291 9.234 20.53 17.607 35.457 27.149 48.402 6.686 9.057 13.392 15.327 21.102 19.729 8.123 4.647 17.226 6.906 27.829 6.906 1.202 0 2.444-.03 3.698-.088 6.16-.3 8.446-2.53 8.735-8.529.138-3.065.473-6.28 1.98-9.022.951-1.728 1.838-1.728 2.13-1.728.561 0 1.257.258 2.005.743 1.341.875 2.49 2.048 3.434 3.072.887.973 1.764 1.956 2.642 2.94 1.896 2.122 3.855 4.317 5.902 6.398 4.48 4.559 9.417 6.564 15.086 6.129h21.16c.046 0 .091-.002.136-.004 2.109-.14 3.935-1.31 5.01-3.21 1.333-2.353 1.306-5.356-.071-8.034-1.563-3.028-3.59-5.615-5.366-7.745z"/>
	</symbol>
	<symbol id="categories" viewBox="0 0 150 150">
		<path d="M145.55 116.254h-5.403V93.23c0-4.909-3.994-8.902-8.902-8.902H81.677V66.333c0-.177-.013-.35-.027-.524h23.616a6.684 6.684 0 0 0 6.676-6.676V11.221a6.684 6.684 0 0 0-6.676-6.677h-60.53a6.684 6.684 0 0 0-6.677 6.677v47.91a6.684 6.684 0 0 0 6.676 6.677h23.616a6.583 6.583 0 0 0-.027.524V84.33H18.756c-4.908 0-8.902 3.993-8.902 8.902v23.023H4.451A4.456 4.456 0 0 0 0 120.704v20.3a4.456 4.456 0 0 0 4.451 4.451h24.16a4.456 4.456 0 0 0 4.45-4.451v-20.3a4.456 4.456 0 0 0-4.45-4.45h-5.404V97.682h45.117v18.572H62.92a4.456 4.456 0 0 0-4.451 4.45v20.3a4.456 4.456 0 0 0 4.45 4.451h24.16a4.456 4.456 0 0 0 4.45-4.451v-20.3a4.456 4.456 0 0 0-4.45-4.45h-5.403V97.682h45.116v18.572h-5.403a4.456 4.456 0 0 0-4.451 4.45v20.3a4.456 4.456 0 0 0 4.451 4.451h24.159a4.456 4.456 0 0 0 4.451-4.451v-20.3a4.455 4.455 0 0 0-4.45-4.45zM28.61 143.229zm58.47 0zm58.47 0z"/>
	</symbol>
	<symbol id="tags" viewBox="0 0 150 150">
		<path d="M40.458 130.283c4.497 4.497 11.798 4.497 16.295 0L112.535 74.5a16.336 16.336 0 0 0 3.635-5.544c5.606 1.57 11.057 2.402 15.863 2.372 11.89-.062 15.832-5.267 17.125-8.378 1.294-3.08 2.218-9.55-6.13-18.05l-.276-.278c-5.175-5.174-12.69-9.949-21.223-13.49a111.09 111.09 0 0 0-4.682-1.787v-.093c-.092-6.838-5.606-12.351-12.444-12.444l-33.42-.462a16.253 16.253 0 0 0-11.797 4.805L3.373 76.934c-4.497 4.497-4.497 11.797 0 16.294zm43-93.977a9.537 9.537 0 0 1 13.491 0 9.496 9.496 0 0 1 2.68 8.132c3.665 2.587 8.04 4.99 12.721 6.93a87.529 87.529 0 0 0 4.805 1.817l-.185-13.43c.278.124.524.216.801.34 7.3 3.049 13.861 7.176 18.081 11.396l.185.185c4.004 4.097 4.435 6.715 4.096 7.516-1.047 2.495-12.29 4.712-29.354-2.403-4.99-2.094-9.672-4.682-13.46-7.485-.123.154-.277.308-.4.462a9.537 9.537 0 0 1-13.492 0c-3.696-3.696-3.696-9.733.03-13.46z"/>
	</symbol>
	<symbol id="feed" viewBox="0 0 150 150">
		<path d="M20.452 109.087c-5.682 0-10.51 1.989-14.488 5.965C1.989 119.027 0 123.856 0 129.538c0 5.683 1.987 10.51 5.964 14.486 3.978 3.977 8.807 5.966 14.488 5.966 5.68 0 10.509-1.99 14.486-5.966 3.976-3.975 5.965-8.803 5.965-14.486 0-5.682-1.99-10.51-5.965-14.486-3.976-3.976-8.804-5.965-14.486-5.965zm47.082-26.632c-8.025-8.095-17.221-14.54-27.59-19.332C29.576 58.328 18.71 55.47 7.35 54.547h-.532c-1.847 0-3.374.604-4.58 1.811C.745 57.635 0 59.305 0 61.364v14.38c0 1.775.585 3.302 1.757 4.581 1.171 1.28 2.644 1.99 4.42 2.13 16.262 1.563 30.163 8.116 41.702 19.654 11.54 11.538 18.091 25.44 19.654 41.701.142 1.778.852 3.25 2.13 4.42 1.28 1.175 2.805 1.761 4.58 1.761h14.382c2.058 0 3.726-.744 5.005-2.237 1.35-1.422 1.953-3.127 1.814-5.114-.925-11.36-3.783-22.227-8.576-32.595-4.793-10.369-11.238-19.564-19.334-27.59z"/>
		<path d="M137.198 89.432c-7.598-17.008-18.037-32.116-31.316-45.325-13.21-13.28-28.317-23.718-45.326-31.317C43.55 5.192 25.742.93 7.136.008h-.32C4.97.008 3.409.647 2.13 1.925.71 3.202 0 4.837 0 6.825v15.232c0 1.776.622 3.32 1.864 4.634 1.242 1.314 2.75 2.005 4.526 2.078 15.269.924 29.773 4.547 43.515 10.867 13.74 6.32 25.67 14.54 35.79 24.658 10.118 10.12 18.338 22.05 24.658 35.791 6.32 13.744 9.909 28.246 10.76 43.513.073 1.778.763 3.287 2.076 4.53 1.315 1.241 2.896 1.865 4.742 1.865h15.23c1.99 0 3.62-.71 4.901-2.133 1.421-1.42 2.058-3.087 1.92-5.005-.923-18.608-5.186-36.414-12.784-53.423z"/>
	</symbol>
</svg>
