<svg xmlns="http://www.w3.org/2000/svg" shape-rendering="crispEdges" viewBox="0 0 19.579 19.579" width="150" height="150"><path fill="#FFF" d="M0 0h19.579v19.579H0z"/><path d="M0 0h.529v.529H0zM.529 0h.529v.529H.529zM1.058 0h.529v.529h-.529z"/><path d="M1.587 0h.529v.529h-.529zM2.117 0h.529v.529h-.529zM2.646 0h.529v.529h-.529zM3.175 0h.529v.529h-.529zM5.292 0h.529v.529h-.529zM6.35 0h.529v.529H6.35zM7.408 0h.529v.529h-.529zM8.996 0h.529v.529h-.529zM10.054 0h.529v.529h-.529zM12.171 0h.529v.529h-.529zM14.817 0h.529v.529h-.529zM15.875 0h.529v.529h-.529zM16.404 0h.529v.529h-.529zM16.933 0h.529v.529h-.529zM17.462 0h.529v.529h-.529zM17.992 0h.529v.529h-.529zM18.521 0h.529v.529h-.529zM19.05 0h.529v.529h-.529zM0 .529h.529v.529H0zM3.175.529h.529v.529h-.529zM4.233.529h.529v.529h-.529zM5.292.529h.529v.529h-.529zM7.938.529h.529v.529h-.529zM8.467.529h.529v.529h-.529zM13.758.529h.529v.529h-.529zM14.287.529h.529v.529h-.529zM14.817.529h.529v.529h-.529zM15.875.529h.529v.529h-.529zM19.05.529h.529v.529h-.529zM0 1.058h.529v.529H0zM1.058 1.058h.529v.529h-.529z"/><path d="M1.587 1.058h.529v.529h-.529zM2.117 1.058h.529v.529h-.529zM3.175 1.058h.529v.529h-.529zM6.35 1.058h.529v.529H6.35zM6.879 1.058h.529v.529h-.529zM7.408 1.058h.529v.529h-.529zM7.938 1.058h.529v.529h-.529zM10.583 1.058h.529v.529h-.529zM11.113 1.058h.529v.529h-.529zM11.642 1.058h.529v.529h-.529zM12.171 1.058h.529v.529h-.529zM12.7 1.058h.529v.529H12.7zM13.758 1.058h.529v.529h-.529zM14.817 1.058h.529v.529h-.529zM15.875 1.058h.529v.529h-.529zM16.933 1.058h.529v.529h-.529zM17.462 1.058h.529v.529h-.529zM17.992 1.058h.529v.529h-.529zM19.05 1.058h.529v.529h-.529z"/><g><path d="M0 1.587h.529v.529H0zM1.058 1.587h.529v.529h-.529z"/><path d="M1.587 1.587h.529v.529h-.529zM2.117 1.587h.529v.529h-.529zM3.175 1.587h.529v.529h-.529zM4.233 1.587h.529v.529h-.529zM4.763 1.587h.529v.529h-.529zM5.292 1.587h.529v.529h-.529zM6.35 1.587h.529v.529H6.35zM6.879 1.587h.529v.529h-.529zM8.467 1.587h.529v.529h-.529zM8.996 1.587h.529v.529h-.529zM9.525 1.587h.529v.529h-.529zM12.7 1.587h.529v.529H12.7zM13.229 1.587h.529v.529h-.529zM13.758 1.587h.529v.529h-.529zM14.287 1.587h.529v.529h-.529zM14.817 1.587h.529v.529h-.529zM15.875 1.587h.529v.529h-.529zM16.933 1.587h.529v.529h-.529zM17.462 1.587h.529v.529h-.529zM17.992 1.587h.529v.529h-.529zM19.05 1.587h.529v.529h-.529z"/></g><g><path d="M0 2.117h.529v.529H0zM1.058 2.117h.529v.529h-.529z"/><path d="M1.587 2.117h.529v.529h-.529zM2.117 2.117h.529v.529h-.529zM3.175 2.117h.529v.529h-.529zM4.763 2.117h.529v.529h-.529zM7.408 2.117h.529v.529h-.529zM9.525 2.117h.529v.529h-.529zM10.054 2.117h.529v.529h-.529zM10.583 2.117h.529v.529h-.529zM11.113 2.117h.529v.529h-.529zM12.171 2.117h.529v.529h-.529zM14.817 2.117h.529v.529h-.529zM15.875 2.117h.529v.529h-.529zM16.933 2.117h.529v.529h-.529zM17.462 2.117h.529v.529h-.529zM17.992 2.117h.529v.529h-.529zM19.05 2.117h.529v.529h-.529z"/></g><g><path d="M0 2.646h.529v.529H0zM3.175 2.646h.529v.529h-.529zM4.233 2.646h.529v.529h-.529zM4.763 2.646h.529v.529h-.529zM5.821 2.646h.529v.529h-.529zM6.35 2.646h.529v.529H6.35zM6.879 2.646h.529v.529h-.529zM9.525 2.646h.529v.529h-.529zM10.583 2.646h.529v.529h-.529zM11.642 2.646h.529v.529h-.529zM13.229 2.646h.529v.529h-.529zM14.287 2.646h.529v.529h-.529zM14.817 2.646h.529v.529h-.529zM15.875 2.646h.529v.529h-.529zM19.05 2.646h.529v.529h-.529z"/></g><g><path d="M0 3.175h.529v.529H0zM.529 3.175h.529v.529H.529zM1.058 3.175h.529v.529h-.529z"/><path d="M1.587 3.175h.529v.529h-.529zM2.117 3.175h.529v.529h-.529zM2.646 3.175h.529v.529h-.529zM3.175 3.175h.529v.529h-.529zM4.233 3.175h.529v.529h-.529zM5.292 3.175h.529v.529h-.529zM6.35 3.175h.529v.529H6.35zM7.408 3.175h.529v.529h-.529zM8.467 3.175h.529v.529h-.529zM9.525 3.175h.529v.529h-.529zM10.583 3.175h.529v.529h-.529zM11.642 3.175h.529v.529h-.529zM12.7 3.175h.529v.529H12.7zM13.758 3.175h.529v.529h-.529zM14.817 3.175h.529v.529h-.529zM15.875 3.175h.529v.529h-.529zM16.404 3.175h.529v.529h-.529zM16.933 3.175h.529v.529h-.529zM17.462 3.175h.529v.529h-.529zM17.992 3.175h.529v.529h-.529zM18.521 3.175h.529v.529h-.529zM19.05 3.175h.529v.529h-.529z"/></g><g><path d="M4.763 3.704h.529v.529h-.529zM5.292 3.704h.529v.529h-.529zM5.821 3.704h.529v.529h-.529zM6.879 3.704h.529v.529h-.529zM9.525 3.704h.529v.529h-.529zM11.113 3.704h.529v.529h-.529zM12.7 3.704h.529v.529H12.7zM14.817 3.704h.529v.529h-.529z"/></g><g><path d="M0 4.233h.529v.529H0zM.529 4.233h.529v.529H.529zM1.058 4.233h.529v.529h-.529z"/><path d="M1.587 4.233h.529v.529h-.529zM2.117 4.233h.529v.529h-.529zM3.175 4.233h.529v.529h-.529zM3.704 4.233h.529v.529h-.529z"/><path d="M4.233 4.233h.529v.529h-.529zM4.763 4.233h.529v.529h-.529zM5.821 4.233h.529v.529h-.529zM8.467 4.233h.529v.529h-.529zM8.996 4.233h.529v.529h-.529zM10.054 4.233h.529v.529h-.529zM11.642 4.233h.529v.529h-.529zM12.171 4.233h.529v.529h-.529zM12.7 4.233h.529v.529H12.7zM13.229 4.233h.529v.529h-.529zM13.758 4.233h.529v.529h-.529zM15.346 4.233h.529v.529h-.529zM16.404 4.233h.529v.529h-.529zM17.462 4.233h.529v.529h-.529zM18.521 4.233h.529v.529h-.529z"/></g><g><path d="M0 4.763h.529v.529H0zM3.704 4.763h.529v.529h-.529z"/><path d="M4.233 4.763h.529v.529h-.529zM4.763 4.763h.529v.529h-.529zM5.292 4.763h.529v.529h-.529zM6.35 4.763h.529v.529H6.35zM6.879 4.763h.529v.529h-.529zM7.408 4.763h.529v.529h-.529zM8.996 4.763h.529v.529h-.529zM9.525 4.763h.529v.529h-.529zM10.054 4.763h.529v.529h-.529zM10.583 4.763h.529v.529h-.529zM12.171 4.763h.529v.529h-.529zM13.758 4.763h.529v.529h-.529zM17.462 4.763h.529v.529h-.529zM17.992 4.763h.529v.529h-.529zM18.521 4.763h.529v.529h-.529z"/></g><g><path d="M2.117 5.292h.529v.529h-.529zM3.175 5.292h.529v.529h-.529zM3.704 5.292h.529v.529h-.529z"/><path d="M4.233 5.292h.529v.529h-.529zM4.763 5.292h.529v.529h-.529zM5.292 5.292h.529v.529h-.529zM6.879 5.292h.529v.529h-.529zM7.408 5.292h.529v.529h-.529zM8.467 5.292h.529v.529h-.529zM10.583 5.292h.529v.529h-.529zM11.113 5.292h.529v.529h-.529zM12.7 5.292h.529v.529H12.7zM13.229 5.292h.529v.529h-.529zM14.287 5.292h.529v.529h-.529zM15.346 5.292h.529v.529h-.529zM17.462 5.292h.529v.529h-.529zM17.992 5.292h.529v.529h-.529zM19.05 5.292h.529v.529h-.529z"/></g><g><path d="M.529 5.821h.529v.529H.529zM1.587 5.821h.529v.529h-.529zM2.646 5.821h.529v.529h-.529zM4.233 5.821h.529v.529h-.529zM5.292 5.821h.529v.529h-.529zM6.35 5.821h.529v.529H6.35zM6.879 5.821h.529v.529h-.529zM8.467 5.821h.529v.529h-.529zM10.054 5.821h.529v.529h-.529zM10.583 5.821h.529v.529h-.529zM11.113 5.821h.529v.529h-.529zM13.758 5.821h.529v.529h-.529zM14.817 5.821h.529v.529h-.529zM16.404 5.821h.529v.529h-.529zM16.933 5.821h.529v.529h-.529zM17.462 5.821h.529v.529h-.529zM18.521 5.821h.529v.529h-.529z"/></g><g><path d="M0 6.35h.529v.529H0zM2.646 6.35h.529v.529h-.529zM3.175 6.35h.529v.529h-.529zM4.233 6.35h.529v.529h-.529zM4.763 6.35h.529v.529h-.529zM6.35 6.35h.529v.529H6.35zM6.879 6.35h.529v.529h-.529zM7.938 6.35h.529v.529h-.529zM8.467 6.35h.529v.529h-.529zM9.525 6.35h.529v.529h-.529zM10.054 6.35h.529v.529h-.529zM10.583 6.35h.529v.529h-.529zM11.642 6.35h.529v.529h-.529zM12.171 6.35h.529v.529h-.529zM12.7 6.35h.529v.529H12.7zM13.229 6.35h.529v.529h-.529zM13.758 6.35h.529v.529h-.529zM15.346 6.35h.529v.529h-.529zM15.875 6.35h.529v.529h-.529zM16.933 6.35h.529v.529h-.529zM17.462 6.35h.529v.529h-.529zM17.992 6.35h.529v.529h-.529zM19.05 6.35h.529v.529h-.529z"/></g><g><path d="M1.058 6.879h.529v.529h-.529z"/><path d="M1.587 6.879h.529v.529h-.529zM2.117 6.879h.529v.529h-.529zM3.704 6.879h.529v.529h-.529z"/><path d="M4.233 6.879h.529v.529h-.529zM6.879 6.879h.529v.529h-.529zM7.408 6.879h.529v.529h-.529zM8.996 6.879h.529v.529h-.529zM10.583 6.879h.529v.529h-.529zM12.171 6.879h.529v.529h-.529zM14.817 6.879h.529v.529h-.529zM16.404 6.879h.529v.529h-.529zM17.992 6.879h.529v.529h-.529zM18.521 6.879h.529v.529h-.529z"/></g><g><path d="M0 7.408h.529v.529H0zM.529 7.408h.529v.529H.529zM1.058 7.408h.529v.529h-.529zM3.175 7.408h.529v.529h-.529zM4.763 7.408h.529v.529h-.529zM5.821 7.408h.529v.529h-.529zM6.35 7.408h.529v.529H6.35zM8.467 7.408h.529v.529h-.529zM8.996 7.408h.529v.529h-.529zM9.525 7.408h.529v.529h-.529zM11.642 7.408h.529v.529h-.529zM13.229 7.408h.529v.529h-.529zM14.287 7.408h.529v.529h-.529zM14.817 7.408h.529v.529h-.529zM15.875 7.408h.529v.529h-.529zM16.404 7.408h.529v.529h-.529zM17.992 7.408h.529v.529h-.529zM18.521 7.408h.529v.529h-.529zM19.05 7.408h.529v.529h-.529z"/></g><g><path d="M2.117 7.938h.529v.529h-.529zM4.233 7.938h.529v.529h-.529zM4.763 7.938h.529v.529h-.529zM5.821 7.938h.529v.529h-.529zM6.879 7.938h.529v.529h-.529zM7.938 7.938h.529v.529h-.529zM10.054 7.938h.529v.529h-.529zM10.583 7.938h.529v.529h-.529zM11.113 7.938h.529v.529h-.529zM11.642 7.938h.529v.529h-.529zM12.171 7.938h.529v.529h-.529zM12.7 7.938h.529v.529H12.7zM13.758 7.938h.529v.529h-.529zM14.287 7.938h.529v.529h-.529zM15.346 7.938h.529v.529h-.529zM17.462 7.938h.529v.529h-.529zM19.05 7.938h.529v.529h-.529z"/></g><g><path d="M.529 8.467h.529v.529H.529zM1.058 8.467h.529v.529h-.529z"/><path d="M1.587 8.467h.529v.529h-.529zM2.117 8.467h.529v.529h-.529zM3.175 8.467h.529v.529h-.529zM4.233 8.467h.529v.529h-.529zM5.292 8.467h.529v.529h-.529zM5.821 8.467h.529v.529h-.529zM6.879 8.467h.529v.529h-.529zM8.467 8.467h.529v.529h-.529zM8.996 8.467h.529v.529h-.529zM10.054 8.467h.529v.529h-.529zM11.642 8.467h.529v.529h-.529zM12.7 8.467h.529v.529H12.7zM13.229 8.467h.529v.529h-.529zM13.758 8.467h.529v.529h-.529zM15.346 8.467h.529v.529h-.529zM15.875 8.467h.529v.529h-.529zM16.933 8.467h.529v.529h-.529zM17.462 8.467h.529v.529h-.529zM17.992 8.467h.529v.529h-.529zM19.05 8.467h.529v.529h-.529z"/></g><g><path d="M0 8.996h.529v.529H0zM1.058 8.996h.529v.529h-.529z"/><path d="M1.587 8.996h.529v.529h-.529zM2.646 8.996h.529v.529h-.529zM3.704 8.996h.529v.529h-.529zM4.763 8.996h.529v.529h-.529zM6.35 8.996h.529v.529H6.35zM6.879 8.996h.529v.529h-.529zM7.408 8.996h.529v.529h-.529zM8.996 8.996h.529v.529h-.529zM10.054 8.996h.529v.529h-.529zM10.583 8.996h.529v.529h-.529zM11.113 8.996h.529v.529h-.529zM11.642 8.996h.529v.529h-.529zM12.171 8.996h.529v.529h-.529zM13.758 8.996h.529v.529h-.529zM14.817 8.996h.529v.529h-.529zM16.404 8.996h.529v.529h-.529zM17.992 8.996h.529v.529h-.529zM18.521 8.996h.529v.529h-.529z"/></g><g><path d="M0 9.525h.529v.529H0zM.529 9.525h.529v.529H.529zM1.587 9.525h.529v.529h-.529zM2.646 9.525h.529v.529h-.529zM3.175 9.525h.529v.529h-.529zM3.704 9.525h.529v.529h-.529zM5.292 9.525h.529v.529h-.529zM7.938 9.525h.529v.529h-.529zM8.467 9.525h.529v.529h-.529zM8.996 9.525h.529v.529h-.529zM10.583 9.525h.529v.529h-.529zM12.7 9.525h.529v.529H12.7zM13.229 9.525h.529v.529h-.529zM14.287 9.525h.529v.529h-.529zM15.346 9.525h.529v.529h-.529zM17.992 9.525h.529v.529h-.529zM18.521 9.525h.529v.529h-.529zM19.05 9.525h.529v.529h-.529z"/></g><g><path d="M1.587 10.054h.529v.529h-.529zM2.117 10.054h.529v.529h-.529zM3.704 10.054h.529v.529h-.529zM4.763 10.054h.529v.529h-.529zM6.35 10.054h.529v.529H6.35zM7.408 10.054h.529v.529h-.529zM10.054 10.054h.529v.529h-.529zM10.583 10.054h.529v.529h-.529zM11.113 10.054h.529v.529h-.529zM11.642 10.054h.529v.529h-.529zM12.7 10.054h.529v.529H12.7zM15.346 10.054h.529v.529h-.529zM19.05 10.054h.529v.529h-.529z"/></g><g><path d="M1.058 10.583h.529v.529h-.529z"/><path d="M1.587 10.583h.529v.529h-.529zM2.117 10.583h.529v.529h-.529zM2.646 10.583h.529v.529h-.529zM3.175 10.583h.529v.529h-.529zM3.704 10.583h.529v.529h-.529zM4.763 10.583h.529v.529h-.529zM5.292 10.583h.529v.529h-.529zM6.35 10.583h.529v.529H6.35zM7.938 10.583h.529v.529h-.529zM8.467 10.583h.529v.529h-.529zM10.054 10.583h.529v.529h-.529zM11.642 10.583h.529v.529h-.529zM12.171 10.583h.529v.529h-.529zM13.229 10.583h.529v.529h-.529zM14.287 10.583h.529v.529h-.529zM15.346 10.583h.529v.529h-.529zM15.875 10.583h.529v.529h-.529zM16.404 10.583h.529v.529h-.529zM16.933 10.583h.529v.529h-.529zM17.992 10.583h.529v.529h-.529zM18.521 10.583h.529v.529h-.529zM19.05 10.583h.529v.529h-.529z"/></g><g><path d="M1.058 11.113h.529v.529h-.529z"/><path d="M1.587 11.113h.529v.529h-.529zM2.117 11.113h.529v.529h-.529zM2.646 11.113h.529v.529h-.529zM3.704 11.113h.529v.529h-.529zM4.763 11.113h.529v.529h-.529zM7.938 11.113h.529v.529h-.529zM10.054 11.113h.529v.529h-.529zM10.583 11.113h.529v.529h-.529zM11.113 11.113h.529v.529h-.529zM11.642 11.113h.529v.529h-.529zM12.171 11.113h.529v.529h-.529zM13.229 11.113h.529v.529h-.529zM13.758 11.113h.529v.529h-.529zM14.817 11.113h.529v.529h-.529zM16.404 11.113h.529v.529h-.529zM18.521 11.113h.529v.529h-.529z"/></g><g><path d="M0 11.642h.529v.529H0zM.529 11.642h.529v.529H.529zM1.587 11.642h.529v.529h-.529zM2.117 11.642h.529v.529h-.529zM3.175 11.642h.529v.529h-.529zM3.704 11.642h.529v.529h-.529z"/><path d="M4.233 11.642h.529v.529h-.529zM4.763 11.642h.529v.529h-.529zM5.821 11.642h.529v.529h-.529zM6.35 11.642h.529v.529H6.35zM7.938 11.642h.529v.529h-.529zM8.467 11.642h.529v.529h-.529zM9.525 11.642h.529v.529h-.529zM11.113 11.642h.529v.529h-.529zM11.642 11.642h.529v.529h-.529zM13.229 11.642h.529v.529h-.529zM13.758 11.642h.529v.529h-.529zM14.287 11.642h.529v.529h-.529zM14.817 11.642h.529v.529h-.529zM15.346 11.642h.529v.529h-.529zM16.404 11.642h.529v.529h-.529zM17.992 11.642h.529v.529h-.529zM18.521 11.642h.529v.529h-.529zM19.05 11.642h.529v.529h-.529z"/></g><g><path d="M.529 12.171h.529v.529H.529zM1.058 12.171h.529v.529h-.529z"/><path d="M1.587 12.171h.529v.529h-.529zM2.117 12.171h.529v.529h-.529zM3.704 12.171h.529v.529h-.529zM5.292 12.171h.529v.529h-.529zM5.821 12.171h.529v.529h-.529zM7.938 12.171h.529v.529h-.529zM8.467 12.171h.529v.529h-.529zM8.996 12.171h.529v.529h-.529zM10.583 12.171h.529v.529h-.529zM11.113 12.171h.529v.529h-.529zM13.758 12.171h.529v.529h-.529zM14.287 12.171h.529v.529h-.529zM14.817 12.171h.529v.529h-.529zM15.346 12.171h.529v.529h-.529zM15.875 12.171h.529v.529h-.529zM16.933 12.171h.529v.529h-.529zM19.05 12.171h.529v.529h-.529z"/></g><g><path d="M0 12.7h.529v.529H0zM1.058 12.7h.529v.529h-.529z"/><path d="M1.587 12.7h.529v.529h-.529zM2.117 12.7h.529v.529h-.529zM2.646 12.7h.529v.529h-.529zM3.175 12.7h.529v.529h-.529zM3.704 12.7h.529v.529h-.529z"/><path d="M4.233 12.7h.529v.529h-.529zM4.763 12.7h.529v.529h-.529zM5.821 12.7h.529v.529h-.529zM7.938 12.7h.529v.529h-.529zM8.996 12.7h.529v.529h-.529zM10.583 12.7h.529v.529h-.529zM11.642 12.7h.529v.529h-.529zM12.171 12.7h.529v.529h-.529zM12.7 12.7h.529v.529H12.7zM13.229 12.7h.529v.529h-.529zM13.758 12.7h.529v.529h-.529zM15.875 12.7h.529v.529h-.529zM16.404 12.7h.529v.529h-.529zM16.933 12.7h.529v.529h-.529zM17.992 12.7h.529v.529h-.529zM18.521 12.7h.529v.529h-.529zM19.05 12.7h.529v.529h-.529z"/></g><g><path d="M0 13.229h.529v.529H0zM.529 13.229h.529v.529H.529zM2.646 13.229h.529v.529h-.529zM3.704 13.229h.529v.529h-.529z"/><path d="M4.233 13.229h.529v.529h-.529zM4.763 13.229h.529v.529h-.529zM6.35 13.229h.529v.529H6.35zM6.879 13.229h.529v.529h-.529zM7.938 13.229h.529v.529h-.529zM8.996 13.229h.529v.529h-.529zM9.525 13.229h.529v.529h-.529zM10.054 13.229h.529v.529h-.529zM10.583 13.229h.529v.529h-.529zM11.113 13.229h.529v.529h-.529zM12.171 13.229h.529v.529h-.529zM12.7 13.229h.529v.529H12.7zM16.404 13.229h.529v.529h-.529zM18.521 13.229h.529v.529h-.529z"/></g><g><path d="M0 13.758h.529v.529H0zM1.587 13.758h.529v.529h-.529zM2.117 13.758h.529v.529h-.529zM2.646 13.758h.529v.529h-.529zM3.175 13.758h.529v.529h-.529zM4.763 13.758h.529v.529h-.529zM6.879 13.758h.529v.529h-.529zM7.408 13.758h.529v.529h-.529zM7.938 13.758h.529v.529h-.529zM8.996 13.758h.529v.529h-.529zM11.113 13.758h.529v.529h-.529zM11.642 13.758h.529v.529h-.529zM13.229 13.758h.529v.529h-.529zM14.287 13.758h.529v.529h-.529zM14.817 13.758h.529v.529h-.529zM15.346 13.758h.529v.529h-.529zM16.404 13.758h.529v.529h-.529zM17.992 13.758h.529v.529h-.529zM18.521 13.758h.529v.529h-.529zM19.05 13.758h.529v.529h-.529z"/></g><g><path d="M0 14.287h.529v.529H0zM1.058 14.287h.529v.529h-.529zM2.117 14.287h.529v.529h-.529zM4.233 14.287h.529v.529h-.529zM6.35 14.287h.529v.529H6.35zM6.879 14.287h.529v.529h-.529zM8.996 14.287h.529v.529h-.529zM9.525 14.287h.529v.529h-.529zM10.583 14.287h.529v.529h-.529zM11.113 14.287h.529v.529h-.529zM11.642 14.287h.529v.529h-.529zM12.171 14.287h.529v.529h-.529zM12.7 14.287h.529v.529H12.7zM13.758 14.287h.529v.529h-.529zM14.287 14.287h.529v.529h-.529zM15.346 14.287h.529v.529h-.529zM19.05 14.287h.529v.529h-.529z"/></g><g><path d="M0 14.817h.529v.529H0zM2.117 14.817h.529v.529h-.529zM3.175 14.817h.529v.529h-.529zM3.704 14.817h.529v.529h-.529z"/><path d="M4.233 14.817h.529v.529h-.529zM4.763 14.817h.529v.529h-.529zM6.35 14.817h.529v.529H6.35zM7.408 14.817h.529v.529h-.529zM7.938 14.817h.529v.529h-.529zM8.467 14.817h.529v.529h-.529zM9.525 14.817h.529v.529h-.529zM10.583 14.817h.529v.529h-.529zM11.642 14.817h.529v.529h-.529zM13.229 14.817h.529v.529h-.529zM13.758 14.817h.529v.529h-.529zM14.817 14.817h.529v.529h-.529zM15.346 14.817h.529v.529h-.529zM15.875 14.817h.529v.529h-.529zM16.404 14.817h.529v.529h-.529zM16.933 14.817h.529v.529h-.529zM17.992 14.817h.529v.529h-.529z"/></g><g><path d="M4.233 15.346h.529v.529h-.529zM4.763 15.346h.529v.529h-.529zM7.938 15.346h.529v.529h-.529zM8.467 15.346h.529v.529h-.529zM10.054 15.346h.529v.529h-.529zM10.583 15.346h.529v.529h-.529zM11.113 15.346h.529v.529h-.529zM12.171 15.346h.529v.529h-.529zM13.229 15.346h.529v.529h-.529zM14.287 15.346h.529v.529h-.529zM14.817 15.346h.529v.529h-.529zM16.933 15.346h.529v.529h-.529z"/></g><g><path d="M0 15.875h.529v.529H0zM.529 15.875h.529v.529H.529zM1.058 15.875h.529v.529h-.529z"/><path d="M1.587 15.875h.529v.529h-.529zM2.117 15.875h.529v.529h-.529zM2.646 15.875h.529v.529h-.529zM3.175 15.875h.529v.529h-.529zM4.233 15.875h.529v.529h-.529zM4.763 15.875h.529v.529h-.529zM5.821 15.875h.529v.529h-.529zM6.35 15.875h.529v.529H6.35zM7.938 15.875h.529v.529h-.529zM9.525 15.875h.529v.529h-.529zM10.583 15.875h.529v.529h-.529zM11.113 15.875h.529v.529h-.529zM11.642 15.875h.529v.529h-.529zM13.758 15.875h.529v.529h-.529zM14.817 15.875h.529v.529h-.529zM15.875 15.875h.529v.529h-.529zM16.933 15.875h.529v.529h-.529zM17.992 15.875h.529v.529h-.529zM18.521 15.875h.529v.529h-.529zM19.05 15.875h.529v.529h-.529z"/></g><g><path d="M0 16.404h.529v.529H0zM3.175 16.404h.529v.529h-.529zM5.292 16.404h.529v.529h-.529zM5.821 16.404h.529v.529h-.529zM7.408 16.404h.529v.529h-.529zM8.467 16.404h.529v.529h-.529zM8.996 16.404h.529v.529h-.529zM9.525 16.404h.529v.529h-.529zM10.583 16.404h.529v.529h-.529zM11.113 16.404h.529v.529h-.529zM12.171 16.404h.529v.529h-.529zM13.758 16.404h.529v.529h-.529zM14.817 16.404h.529v.529h-.529zM16.933 16.404h.529v.529h-.529zM17.462 16.404h.529v.529h-.529zM18.521 16.404h.529v.529h-.529zM19.05 16.404h.529v.529h-.529z"/></g><g><path d="M0 16.933h.529v.529H0zM1.058 16.933h.529v.529h-.529z"/><path d="M1.587 16.933h.529v.529h-.529zM2.117 16.933h.529v.529h-.529zM3.175 16.933h.529v.529h-.529zM4.233 16.933h.529v.529h-.529zM4.763 16.933h.529v.529h-.529zM5.821 16.933h.529v.529h-.529zM7.938 16.933h.529v.529h-.529zM8.467 16.933h.529v.529h-.529zM8.996 16.933h.529v.529h-.529zM9.525 16.933h.529v.529h-.529zM10.583 16.933h.529v.529h-.529zM11.113 16.933h.529v.529h-.529zM11.642 16.933h.529v.529h-.529zM12.171 16.933h.529v.529h-.529zM13.229 16.933h.529v.529h-.529zM13.758 16.933h.529v.529h-.529zM14.287 16.933h.529v.529h-.529zM14.817 16.933h.529v.529h-.529zM15.346 16.933h.529v.529h-.529zM15.875 16.933h.529v.529h-.529zM16.404 16.933h.529v.529h-.529zM16.933 16.933h.529v.529h-.529zM17.462 16.933h.529v.529h-.529zM17.992 16.933h.529v.529h-.529zM18.521 16.933h.529v.529h-.529zM19.05 16.933h.529v.529h-.529z"/></g><g><path d="M0 17.462h.529v.529H0zM1.058 17.462h.529v.529h-.529z"/><path d="M1.587 17.462h.529v.529h-.529zM2.117 17.462h.529v.529h-.529zM3.175 17.462h.529v.529h-.529zM4.233 17.462h.529v.529h-.529zM5.292 17.462h.529v.529h-.529zM6.35 17.462h.529v.529H6.35zM6.879 17.462h.529v.529h-.529zM7.408 17.462h.529v.529h-.529zM10.054 17.462h.529v.529h-.529zM10.583 17.462h.529v.529h-.529zM11.642 17.462h.529v.529h-.529zM14.817 17.462h.529v.529h-.529zM15.346 17.462h.529v.529h-.529zM15.875 17.462h.529v.529h-.529zM16.933 17.462h.529v.529h-.529zM17.992 17.462h.529v.529h-.529zM19.05 17.462h.529v.529h-.529z"/></g><g><path d="M0 17.992h.529v.529H0zM1.058 17.992h.529v.529h-.529z"/><path d="M1.587 17.992h.529v.529h-.529zM2.117 17.992h.529v.529h-.529zM3.175 17.992h.529v.529h-.529zM4.233 17.992h.529v.529h-.529zM4.763 17.992h.529v.529h-.529zM6.879 17.992h.529v.529h-.529zM7.408 17.992h.529v.529h-.529zM7.938 17.992h.529v.529h-.529zM8.467 17.992h.529v.529h-.529zM9.525 17.992h.529v.529h-.529zM11.642 17.992h.529v.529h-.529zM13.758 17.992h.529v.529h-.529zM16.404 17.992h.529v.529h-.529zM17.462 17.992h.529v.529h-.529zM17.992 17.992h.529v.529h-.529zM18.521 17.992h.529v.529h-.529zM19.05 17.992h.529v.529h-.529z"/></g><g><path d="M0 18.521h.529v.529H0zM3.175 18.521h.529v.529h-.529zM4.233 18.521h.529v.529h-.529zM6.35 18.521h.529v.529H6.35zM6.879 18.521h.529v.529h-.529zM10.054 18.521h.529v.529h-.529zM11.113 18.521h.529v.529h-.529zM11.642 18.521h.529v.529h-.529zM14.287 18.521h.529v.529h-.529zM14.817 18.521h.529v.529h-.529zM15.875 18.521h.529v.529h-.529zM19.05 18.521h.529v.529h-.529z"/></g><g><path d="M0 19.05h.529v.529H0zM.529 19.05h.529v.529H.529zM1.058 19.05h.529v.529h-.529z"/><path d="M1.587 19.05h.529v.529h-.529zM2.117 19.05h.529v.529h-.529zM2.646 19.05h.529v.529h-.529zM3.175 19.05h.529v.529h-.529zM4.233 19.05h.529v.529h-.529zM6.35 19.05h.529v.529H6.35zM7.408 19.05h.529v.529h-.529zM7.938 19.05h.529v.529h-.529zM9.525 19.05h.529v.529h-.529zM11.642 19.05h.529v.529h-.529zM12.171 19.05h.529v.529h-.529zM13.229 19.05h.529v.529h-.529zM15.346 19.05h.529v.529h-.529zM17.992 19.05h.529v.529h-.529zM18.521 19.05h.529v.529h-.529zM19.05 19.05h.529v.529h-.529z"/></g></svg>