<svg xmlns="http://www.w3.org/2000/svg" viewBox="0 0 150 150">
    <path d="M0 76.841c0 6.797.636 12.946 1.908 18.448 1.27 5.5 3.031 10.28 5.28 14.34a40.389 40.389 0 0 0 8.583 10.709c3.471 3.08 7.237 5.599 11.295 7.555 4.059 1.955 8.692 3.544 13.9 4.767a114.821 114.821 0 0 0 15.953 2.568c5.428.489 11.394.733 17.898.733 6.552 0 12.542-.244 17.97-.733a115.973 115.973 0 0 0 15.99-2.568c5.233-1.222 9.89-2.812 13.973-4.767 4.084-1.957 7.873-4.475 11.37-7.555a40.65 40.65 0 0 0 8.655-10.71c2.274-4.058 4.047-8.838 5.318-14.34 1.271-5.5 1.907-11.65 1.907-18.447 0-12.127-4.059-22.616-12.175-31.467.44-1.174.843-2.506 1.21-3.997.367-1.492.709-3.619 1.027-6.382.317-2.763.195-5.953-.367-9.572-.562-3.619-1.602-7.31-3.118-11.076l-1.1-.22c-.783-.147-2.067-.11-3.851.11-1.785.22-3.864.66-6.235 1.32-2.372.66-5.428 1.932-9.169 3.815-3.74 1.882-7.69 4.242-11.846 7.078-7.14-1.956-16.944-2.934-29.413-2.934-12.42 0-22.2.978-29.34 2.934-4.156-2.836-8.13-5.196-11.92-7.078-3.789-1.883-6.808-3.154-9.058-3.815-2.249-.66-4.352-1.088-6.308-1.283-1.956-.196-3.19-.257-3.704-.184-.513.073-.917.16-1.21.257-1.516 3.765-2.555 7.457-3.118 11.076-.562 3.619-.684 6.81-.366 9.572.318 2.763.66 4.89 1.027 6.382.366 1.491.77 2.823 1.21 3.997C4.059 54.225 0 64.714 0 76.841zm18.41 18.411c0-7.041 3.204-13.496 9.61-19.364 1.906-1.761 4.132-3.093 6.674-3.998 2.543-.905 5.416-1.418 8.619-1.54a95.544 95.544 0 0 1 9.205.073c2.934.17 6.553.403 10.856.696 4.303.294 8.02.44 11.149.44 3.13 0 6.846-.146 11.15-.44 4.303-.293 7.92-.525 10.856-.696a95.539 95.539 0 0 1 9.205-.074c3.203.123 6.075.636 8.619 1.54 2.542.906 4.767 2.238 6.674 3.999 6.406 5.77 9.61 12.225 9.61 19.364 0 4.206-.527 7.934-1.578 11.186-1.052 3.252-2.397 5.978-4.035 8.178-1.638 2.2-3.912 4.072-6.821 5.612-2.91 1.54-5.746 2.726-8.509 3.558-2.763.83-6.308 1.479-10.636 1.944-4.328.464-8.19.746-11.59.843-3.398.098-7.713.147-12.945.147s-9.548-.049-12.946-.147c-3.399-.098-7.262-.379-11.59-.843-4.327-.465-7.872-1.113-10.635-1.944-2.763-.832-5.6-2.018-8.509-3.558-2.909-1.54-5.183-3.41-6.821-5.612-1.638-2.2-2.983-4.926-4.034-8.178-1.052-3.252-1.577-6.981-1.577-11.186zm75.34-1.479c0 7.767 4.197 14.063 9.375 14.063s9.375-6.296 9.375-14.063c0-7.766-4.197-14.062-9.375-14.062s-9.375 6.296-9.375 14.062zm-56.25 0c0 7.767 4.197 14.063 9.375 14.063s9.375-6.296 9.375-14.063c0-7.766-4.197-14.062-9.375-14.062S37.5 86.007 37.5 93.773z"/>
</svg>
