<svg xmlns="http://www.w3.org/2000/svg" viewBox="0 0 150 150"><path fill="#ddd" d="M139.94 37.517C119.233 1.64 73.363-10.65 37.503 10.059s-48.15 66.563-27.443 102.439c20.709 35.86 66.563 48.15 102.44 27.443 35.86-20.709 48.15-66.564 27.442-102.424zM105 126.947c-28.683 16.56-65.385 6.734-81.945-21.949C6.479 76.301 16.32 39.614 45.003 23.053c28.682-16.56 65.384-6.734 81.944 21.948 16.56 28.698 6.735 65.385-21.947 81.945zm-3-54.993L62.725 49.057c-3.581-2.081-6.459-.413-6.443 3.72l.199 45.456c.015 4.133 2.938 5.816 6.52 3.75l38.967-22.499c3.597-2.066 3.597-5.449.03-7.53z"/></svg>