<svg xmlns="http://www.w3.org/2000/svg" viewBox="0 0 150 150">
    <path d="M150 71.39c0-10.348-8.419-18.767-18.767-18.767-5.774 0-11.085 2.58-14.627 7.005-9.937-4.52-21.267-7.306-33.252-8.188l10.298-32.543 23 4.983c1.762 6.854 7.99 11.935 15.385 11.935 8.76 0 15.886-7.126 15.886-15.886 0-8.759-7.126-15.886-15.886-15.886-6.327 0-11.795 3.722-14.348 9.09L91.15 7.38a5.363 5.363 0 0 0-6.247 3.623l-12.71 40.165c-14.03.342-27.34 3.246-38.798 8.458-3.542-4.424-8.853-7.004-14.627-7.004C8.419 52.623 0 61.042 0 71.39a18.65 18.65 0 0 0 5.481 13.249c-2.091 4.488-3.15 9.156-3.15 13.907 0 12.894 7.719 24.929 21.736 33.887 13.645 8.72 31.734 13.524 50.933 13.524 19.2 0 37.288-4.803 50.933-13.524 14.017-8.958 21.736-20.993 21.736-33.887 0-4.75-1.059-9.419-3.15-13.907A18.65 18.65 0 0 0 150 71.39zM8.24 77.823a12.175 12.175 0 0 1-1.806-6.433c0-6.8 5.532-12.333 12.333-12.333 2.919 0 5.661.993 7.855 2.82-7.84 4.451-14.012 9.806-18.381 15.946zm28.243 10.866c0-7.391 6.013-13.405 13.405-13.405 7.391 0 13.405 6.014 13.405 13.405 0 7.392-6.014 13.405-13.405 13.405-7.392 0-13.405-6.013-13.405-13.405zm66.016 30.593c-5.225 5.703-15.762 9.246-27.499 9.246-11.736 0-22.273-3.543-27.498-9.246a5.328 5.328 0 0 1-1.404-3.857 5.326 5.326 0 0 1 1.735-3.72 5.348 5.348 0 0 1 3.622-1.408c1.5 0 2.94.634 3.953 1.74 3.111 3.395 11.167 5.767 19.592 5.767 8.425 0 16.481-2.372 19.592-5.767a5.374 5.374 0 0 1 3.954-1.74c1.345 0 2.63.5 3.622 1.409a5.323 5.323 0 0 1 1.734 3.72 5.326 5.326 0 0 1-1.403 3.856zm-2.387-17.188c-7.391 0-13.405-6.013-13.405-13.405 0-7.391 6.014-13.405 13.405-13.405 7.392 0 13.405 6.014 13.405 13.405 0 7.392-6.013 13.405-13.405 13.405zm41.647-24.271c-4.368-6.14-10.54-11.494-18.38-15.946 2.193-1.828 4.935-2.82 7.854-2.82 6.8 0 12.333 5.533 12.333 12.333 0 2.31-.62 4.508-1.807 6.433z"/>
</svg>
