<svg xmlns="http://www.w3.org/2000/svg" viewBox="0 0 150 150">
    <path d="M150 28.48a61.529 61.529 0 0 1-17.675 4.845c6.354-3.808 11.234-9.839 13.532-17.026a61.61 61.61 0 0 1-19.543 7.468 30.733 30.733 0 0 0-22.463-9.717c-16.995 0-30.774 13.777-30.774 30.773 0 2.412.272 4.76.797 7.013-25.576-1.284-48.252-13.535-63.43-32.154a30.629 30.629 0 0 0-4.167 15.471c0 10.677 5.432 20.097 13.69 25.615a30.649 30.649 0 0 1-13.939-3.85c-.003.13-.003.258-.003.388 0 14.91 10.609 27.348 24.686 30.176a30.833 30.833 0 0 1-13.898.527c3.917 12.225 15.282 21.124 28.748 21.371-10.532 8.255-23.801 13.174-38.22 13.174-2.484 0-4.933-.145-7.341-.43 13.619 8.732 29.795 13.827 47.174 13.827 56.605 0 87.559-46.894 87.559-87.56 0-1.335-.03-2.662-.09-3.982A62.515 62.515 0 0 0 150 28.48z"/>
</svg>
