<svg xmlns="http://www.w3.org/2000/svg" viewBox="0 0 150 150">
    <path d="M143.479 99.274c-3.266-3.92-6.978-7.434-10.567-10.832a349.398 349.398 0 0 1-3.868-3.7c-3.652-3.57-3.785-4.912-.893-8.968 2-2.795 4.121-5.595 6.172-8.302 1.86-2.456 3.785-4.996 5.629-7.545l.378-.524c3.525-4.876 7.17-9.919 9.11-16.002.503-1.604 1.032-3.966-.177-5.941-1.209-1.973-3.553-2.575-5.212-2.856-.82-.14-1.635-.158-2.39-.158l-23.081-.017-.19-.002c-3.49 0-5.842 1.645-7.19 5.028-1.287 3.233-2.7 6.676-4.313 9.95-3.209 6.517-7.285 14.025-13.183 20.286l-.25.266c-.696.749-1.485 1.597-2.062 1.597a.981.981 0 0 1-.293-.052c-1.222-.476-2.042-3.433-2.005-4.809l.001-.057-.016-26.676c0-.093-.007-.184-.019-.276-.587-4.336-1.887-7.036-6.801-7.998a2.033 2.033 0 0 0-.397-.039h-24c-3.91 0-6.064 1.59-8.089 3.968-.546.636-1.684 1.96-1.12 3.565.572 1.63 2.43 1.978 3.034 2.091 3.003.572 4.695 2.408 5.175 5.617.836 5.572.94 11.52.323 18.718-.172 2-.511 3.545-1.071 4.865-.13.308-.591 1.313-1.062 1.314-.15 0-.581-.059-1.369-.601-1.862-1.276-3.224-3.096-4.812-5.344-5.402-7.634-9.936-16.045-13.862-25.717-1.456-3.561-4.176-5.554-7.661-5.613-3.83-.058-7.303-.086-10.614-.086-3.619 0-6.974.033-10.25.101-2.804.05-4.743.89-5.764 2.5-1.022 1.612-.956 3.729.198 6.291 9.234 20.53 17.607 35.457 27.149 48.402 6.686 9.057 13.392 15.327 21.102 19.729 8.123 4.647 17.226 6.906 27.829 6.906 1.202 0 2.444-.03 3.698-.088 6.16-.3 8.446-2.53 8.735-8.529.138-3.065.473-6.28 1.98-9.022.951-1.728 1.838-1.728 2.13-1.728.561 0 1.257.258 2.005.743 1.341.875 2.49 2.048 3.434 3.072.887.973 1.764 1.956 2.642 2.94 1.896 2.122 3.855 4.317 5.902 6.398 4.48 4.559 9.417 6.564 15.086 6.129h21.16c.046 0 .091-.002.136-.004 2.109-.14 3.935-1.31 5.01-3.21 1.333-2.353 1.306-5.356-.071-8.034-1.563-3.028-3.59-5.615-5.366-7.745z"/>
</svg>
