<svg id="Layer_5" enable-background="new 0 0 64 64" height="512" viewBox="0 0 64 64" width="512" xmlns="http://www.w3.org/2000/svg"><g><g><g><path d="m60 54h-56-2c0 4.42 3.58 8 8 8h44c2.21 0 4.21-.9 5.66-2.34 1.44-1.45 2.34-3.45 2.34-5.66z" fill="#969faa"/></g><g><path d="m60 22v32h-19-18-19v-36c0-2.21 1.79-4 4-4h22v4h-21c-.55 0-1 .45-1 1v30c0 .55.45 1 1 1h46c.55 0 1-.45 1-1v-27z" fill="#e6e9ed"/></g><g><path d="m56 22v27c0 .55-.45 1-1 1h-46c-.55 0-1-.45-1-1v-30c0-.55.45-1 1-1h21v4z" fill="#69d6f4"/></g><g><path d="m40.91 8.82h.01c-.59.92-.92 2.01-.92 3.18s.33 2.26.92 3.18h-.01l-10.91 6.82v-4-4-12z" fill="#dfb28b"/></g><g><path d="m62 2v20l-10.56-6.6-.01-.01c.36-.36.57-.85.57-1.39v-2c0-1.17-.33-2.26-.92-3.18h.01z" fill="#dfb28b"/></g><g><path d="m51.44 15.4 10.56 6.6h-2-4-26l10.91-6.82h.01c-.59-.92-.92-2.01-.92-3.18s.33-2.26.92-3.18c.23-.39.52-.74.84-1.06 1.08-1.09 2.58-1.76 4.24-1.76 2.14 0 4.03 1.13 5.08 2.82.59.92.92 2.01.92 3.18v2c0 .54-.21 1.03-.57 1.39z" fill="#d3a06c"/></g><g><path d="m62 2-10.91 6.82h-.01c-1.05-1.69-2.94-2.82-5.08-2.82-1.66 0-3.16.67-4.24 1.76-.32.32-.61.67-.84 1.06h-.01l-10.91-6.82z" fill="#cf9e76"/></g><g><path d="m47.41 10.59c.37.36.59.86.59 1.41s-.22 1.05-.59 1.41c-.36.37-.86.59-1.41.59-1.1 0-2-.9-2-2 0-.55.22-1.05.59-1.41.36-.37.86-.59 1.41-.59s1.05.22 1.41.59z" fill="#fcd770"/></g><g><path d="m48 42h4v4h-4z" fill="#ff826e"/></g><g><path d="m40 42h4v4h-4z" fill="#fcd770"/></g><g><path d="m32 42h4v4h-4z" fill="#fcd770"/></g><g><path d="m21.59 43.59c.26.26.41.62.41 1 0 .78-.63 1.41-1.41 1.41h-3.18c-.78 0-1.41-.63-1.41-1.41v-8.59h1.53c.83 0 1.66.05 2.47.17v5.24c0 .38.15.74.41 1z" fill="#aab2bd"/></g><g><path d="m20 36.17c-.81-.12-1.64-.17-2.47-.17h-1.53c-1.1 0-2.1-.45-2.83-1.17-.72-.73-1.17-1.73-1.17-2.83 0-2.21 1.79-4 4-4h1.53c2.94 0 5.84-.68 8.47-2v12c-1.89-.95-3.92-1.57-6-1.83z" fill="#e6e9ed"/></g><g><path d="m26 26h4v12h-4z" fill="#ff826e"/></g><g><path d="m23 54h18c0 2.21-1.79 4-4 4h-10c-2.21 0-4-1.79-4-4z" fill="#fcd770"/></g></g><g><path d="m25.553 25.105c-2.479 1.24-5.254 1.895-8.025 1.895h-1.528c-2.757 0-5 2.243-5 5 0 2.414 1.721 4.434 4 4.899v7.687c0 1.331 1.083 2.414 2.414 2.414h3.172c1.331 0 2.414-1.083 2.414-2.414 0-.636-.258-1.258-.707-1.707l-1.172-1.172c-.077-.077-.121-.184-.121-.293v-4.065c1.578.312 3.116.827 4.553 1.546l.211.105h5.236v-14h-5.236zm-12.553 6.895c0-1.654 1.346-3 3-3h1.528c2.551 0 5.104-.505 7.472-1.459v8.918c-2.367-.954-4.92-1.459-7.472-1.459h-1.528c-1.654 0-3-1.346-3-3zm6.707 11.121 1.172 1.172c.077.077.121.184.121.293 0 .228-.186.414-.414.414h-3.172c-.228 0-.414-.186-.414-.414v-7.586h.528c.491 0 .982.028 1.472.069v4.345c0 .636.258 1.258.707 1.707zm9.293-6.121h-2v-10h2z"/><path d="m63 23v-22h-34v12h-21c-2.757 0-5 2.243-5 5v35h-2v1c0 4.963 4.037 9 9 9h44c4.963 0 9-4.037 9-9v-1h-2v-30zm-10.205-7.932c.127-.333.205-.691.205-1.068v-2c0-1.004-.217-1.957-.599-2.822l8.599-5.374v16.392zm-1.456-7.584c-1.285-1.517-3.2-2.484-5.339-2.484s-4.054.967-5.34 2.484l-7.174-4.484h25.027zm-11.74 1.695c-.383.864-.599 1.817-.599 2.821s.217 1.958.599 2.822l-8.599 5.374v-16.392zm15.401 13.821v26h-46v-30h20v4zm-21.513-2 7.174-4.484c1.285 1.517 3.2 2.484 5.339 2.484h1v-2h-1c-2.757 0-5-2.243-5-5s2.243-5 5-5 5 2.243 5 5v2c0 .552-.448 1-1 1s-1-.448-1-1v-2c0-1.654-1.346-3-3-3s-3 1.346-3 3 1.346 3 3 3c.395 0 .77-.081 1.116-.22.345 1.275 1.501 2.22 2.884 2.22.537 0 1.034-.153 1.471-.401l7.042 4.401zm12.513-8c-.552 0-1-.448-1-1s.448-1 1-1 1 .448 1 1-.448 1-1 1zm8 48h-44c-3.521 0-6.442-2.612-6.929-6h19.03c.465 2.279 2.484 4 4.899 4h10c2.414 0 4.434-1.721 4.899-4h19.03c-.487 3.388-3.408 6-6.929 6zm-29.816-6h15.631c-.414 1.161-1.514 2-2.816 2h-9.999c-1.302 0-2.402-.839-2.816-2zm34.816-2h-54v-35c0-1.654 1.346-3 3-3h21v2h-20c-1.103 0-2 .897-2 2v30c0 1.103.897 2 2 2h46c1.103 0 2-.897 2-2v-26h2z"/><path d="m35 25h18v2h-18z"/><path d="m35 37h18v2h-18z"/><path d="m51 29h2v2h-2z"/><path d="m35 29h14v2h-14z"/><path d="m35 33h4v2h-4z"/><path d="m41 33h12v2h-12z"/><path d="m47 47h6v-6h-6zm2-4h2v2h-2z"/><path d="m39 47h6v-6h-6zm2-4h2v2h-2z"/><path d="m31 47h6v-6h-6zm2-4h2v2h-2z"/></g></g></svg>