<svg xmlns="http://www.w3.org/2000/svg" viewBox="0 0 100 100" width="18" height="18"><rect width="100" height="99.998" y="163" fill="#3b3c3d" fill-rule="evenodd" rx="7.423" ry="7.453" transform="translate(0 -163)"/><g fill="#fff" fill-rule="evenodd"><path d="M66.541 67.837a16.569 14.331 0 01-16.569 14.331 16.569 14.331 0 01-16.568-14.33 16.569 14.331 0 0116.568-14.332 16.569 14.331 0 0116.569 14.331z"/><path d="M33.404 67.837h33.137V100H33.404z"/></g><path fill="#8ccc25" d="M68.853 28.98a19.005 16.837 0 01-19.005 16.838A19.005 16.837 0 0130.844 28.98a19.005 16.837 0 0119.004-16.838A19.005 16.837 0 0168.853 28.98z"/></svg>