<svg xmlns="http://www.w3.org/2000/svg" shape-rendering="crispEdges" viewBox="0 0 58 58" width="150" height="150"><path fill="#FFF" d="M0 0h58v58H0z"/><path d="M0 0h14v2H0zM16 0h2v2h-2zM26 0h2v2h-2zM36 0h2v2h-2zM40 0h2v4h-2zM44 0h14v2H44zM0 2h2v10H0zM12 2h2v10h-2zM20 2h2v4h-2zM24 2h2v2h-2zM32 2h6v2h-6zM44 2h2v10h-2zM56 2h2v10h-2zM4 4h6v6H4zM16 4h2v2h-2zM24 4h4v2h-4zM34 4h2v6h-2zM38 4h2v4h-2zM48 4h6v6h-6zM18 6h6v4h-6zM28 6h2v2h-2zM26 8h2v2h-2zM16 10h2v4h-2zM20 10h2v4h-2zM32 10h2v10h-2zM40 10h2v4h-2zM0 12h14v2H0zM24 12h2v2h-2zM28 12h2v4h-2zM36 12h2v2h-2zM44 12h14v2H44zM20 14h4v2h-4zM38 14h4v2h-4zM0 16h2v2H0zM4 16h2v2H4zM12 16h4v2h-4zM18 16h4v2h-4zM26 16h4v2h-4zM36 16h2v2h-2zM40 16h2v2h-2zM46 16h2v2h-2zM52 16h2v2h-2zM56 16h2v2h-2zM2 18h2v2H2zM10 18h2v2h-2zM16 18h2v2h-2zM22 18h4v2h-4zM28 18h2v2h-2zM36 18h12v2H36zM54 18h4v2h-4zM0 20h4v2H0zM6 20h2v2H6zM12 20h2v2h-2zM18 20h6v2h-6zM26 20h6v2h-6zM34 20h6v2h-6zM42 20h6v2h-6zM50 20h4v2h-4zM56 20h2v2h-2zM0 22h2v2H0zM4 22h6v2H4zM14 22h2v2h-2zM22 22h2v2h-2zM30 22h2v2h-2zM38 22h2v2h-2zM42 22h10v2H42zM2 24h4v2H2zM8 24h2v2H8zM12 24h10v2H12zM26 24h4v2h-4zM32 24h2v2h-2zM38 24h4v2h-4zM44 24h4v2h-4zM56 24h2v2h-2zM4 26h2v2H4zM16 26h2v2h-2zM20 26h4v2h-4zM26 26h2v2h-2zM30 26h4v2h-4zM38 26h8v2h-8zM54 26h4v2h-4zM2 28h2v2H2zM6 28h2v2H6zM12 28h6v2h-6zM22 28h6v2h-6zM30 28h2v4h-2zM38 28h4v2h-4zM44 28h2v2h-2zM48 28h2v4h-2zM56 28h2v2h-2zM8 30h4v2H8zM22 30h4v2h-4zM36 30h6v2h-6zM2 32h6v2H2zM10 32h8v2h-8zM22 32h12v2H22zM36 32h2v2h-2zM40 32h2v2h-2zM44 32h2v2h-2zM56 32h2v2h-2zM6 34h6v2H6zM18 34h6v2h-6zM30 34h4v2h-4zM36 34h4v4h-4zM42 34h6v2h-6zM52 34h6v2h-6zM0 36h4v2H0zM6 36h2v2H6zM12 36h2v2h-2zM16 36h18v2H16zM42 36h4v2h-4zM48 36h4v2h-4zM56 36h2v2h-2zM4 38h2v2H4zM10 38h2v2h-2zM14 38h6v2h-6zM22 38h4v2h-4zM30 38h4v2h-4zM40 38h2v2h-2zM44 38h4v2h-4zM0 40h8v2H0zM10 40h6v2h-6zM20 40h2v4h-2zM24 40h10v2H24zM38 40h14v2H38zM54 40h2v2h-2zM16 42h2v4h-2zM26 42h2v2h-2zM32 42h2v2h-2zM40 42h2v4h-2zM48 42h6v2h-6zM56 42h2v10h-2zM0 44h14v2H0zM22 44h2v2h-2zM30 44h4v2h-4zM36 44h2v2h-2zM44 44h2v2h-2zM48 44h2v4h-2zM0 46h2v10H0zM12 46h2v10h-2zM24 46h4v2h-4zM30 46h2v2h-2zM38 46h4v2h-4zM4 48h6v6H4zM18 48h10v2H18zM34 48h2v2h-2zM38 48h14v2H38zM22 50h2v2h-2zM30 50h6v2h-6zM42 50h2v2h-2zM46 50h8v2h-8zM16 52h2v2h-2zM22 52h4v2h-4zM30 52h2v2h-2zM38 52h6v2h-6zM48 52h2v2h-2zM54 52h4v2h-4zM20 54h2v2h-2zM26 54h4v2h-4zM32 54h2v2h-2zM36 54h6v2h-6zM44 54h2v2h-2zM48 54h4v2h-4zM0 56h14v2H0zM16 56h2v2h-2zM22 56h2v2h-2zM28 56h6v2h-6zM40 56h2v2h-2zM44 56h8v2h-8zM56 56h2v2h-2z"/></svg>