<svg xmlns="http://www.w3.org/2000/svg" shape-rendering="crispEdges" viewBox="0 0 74 74" width="150" height="150"><path fill="#FFF" d="M0 0h74v74H0z"/><path d="M0 0h14v2H0zM20 0h2v4h-2zM24 0h2v2h-2zM28 0h2v2h-2zM34 0h2v2h-2zM38 0h2v2h-2zM46 0h2v2h-2zM56 0h2v2h-2zM60 0h14v2H60zM0 2h2v10H0zM12 2h2v10h-2zM16 2h2v2h-2zM30 2h4v2h-4zM52 2h6v2h-6zM60 2h2v10h-2zM72 2h2v10h-2zM4 4h6v6H4zM24 4h8v2h-8zM40 4h10v2H40zM52 4h2v2h-2zM56 4h2v2h-2zM64 4h6v6h-6zM16 6h6v2h-6zM24 6h4v2h-4zM32 6h6v2h-6zM48 6h10v2H48zM18 8h2v2h-2zM28 8h2v2h-2zM36 8h8v2h-8zM46 8h2v2h-2zM56 8h2v2h-2zM16 10h4v2h-4zM22 10h6v2h-6zM36 10h2v6h-2zM40 10h2v4h-2zM44 10h2v4h-2zM50 10h2v2h-2zM54 10h4v2h-4zM0 12h14v2H0zM16 12h2v2h-2zM20 12h2v2h-2zM24 12h2v2h-2zM28 12h2v2h-2zM32 12h2v2h-2zM48 12h2v4h-2zM52 12h2v2h-2zM56 12h2v4h-2zM60 12h14v2H60zM18 14h6v2h-6zM26 14h2v2h-2zM42 14h2v2h-2zM0 16h10v2H0zM12 16h8v2h-8zM22 16h2v2h-2zM32 16h4v2h-4zM38 16h2v2h-2zM44 16h10v2H44zM58 16h2v2h-2zM62 16h2v2h-2zM66 16h2v2h-2zM70 16h2v2h-2zM0 18h2v2H0zM14 18h8v2h-8zM24 18h6v2h-6zM34 18h8v2h-8zM46 18h2v2h-2zM52 18h2v2h-2zM66 18h6v2h-6zM8 20h2v2H8zM12 20h10v2H12zM26 20h4v2h-4zM32 20h2v4h-2zM40 20h4v2h-4zM48 20h4v2h-4zM54 20h2v2h-2zM58 20h2v2h-2zM66 20h4v2h-4zM72 20h2v2h-2zM2 22h2v2H2zM6 22h2v2H6zM10 22h2v2h-2zM16 22h2v2h-2zM20 22h2v2h-2zM24 22h4v4h-4zM38 22h6v2h-6zM52 22h2v2h-2zM56 22h2v2h-2zM62 22h6v2h-6zM70 22h2v2h-2zM0 24h2v2H0zM10 24h4v2h-4zM16 24h4v2h-4zM30 24h4v2h-4zM36 24h6v2h-6zM44 24h10v2H44zM58 24h4v2h-4zM64 24h6v2h-6zM72 24h2v2h-2zM4 26h6v2H4zM14 26h4v2h-4zM26 26h4v2h-4zM34 26h2v2h-2zM40 26h2v2h-2zM46 26h2v2h-2zM56 26h2v2h-2zM62 26h2v2h-2zM68 26h4v2h-4zM0 28h6v2H0zM12 28h2v2h-2zM18 28h2v2h-2zM22 28h4v2h-4zM32 28h6v2h-6zM44 28h2v2h-2zM50 28h2v2h-2zM54 28h4v2h-4zM60 28h4v2h-4zM68 28h6v2h-6zM8 30h2v2H8zM16 30h4v2h-4zM22 30h2v2h-2zM26 30h2v4h-2zM30 30h2v2h-2zM38 30h12v2H38zM52 30h4v2h-4zM58 30h2v2h-2zM66 30h2v2h-2zM72 30h2v4h-2zM2 32h8v2H2zM12 32h2v2h-2zM16 32h2v2h-2zM20 32h4v2h-4zM32 32h4v2h-4zM38 32h2v2h-2zM44 32h2v2h-2zM48 32h6v2h-6zM58 32h4v2h-4zM64 32h6v2h-6zM0 34h2v2H0zM4 34h4v2H4zM10 34h2v2h-2zM14 34h2v2h-2zM18 34h2v2h-2zM24 34h6v2h-6zM34 34h2v2h-2zM38 34h10v2H38zM52 34h2v2h-2zM56 34h2v2h-2zM62 34h2v2h-2zM68 34h4v2h-4zM0 36h4v2H0zM6 36h2v2H6zM10 36h6v2h-6zM20 36h2v2h-2zM30 36h6v2h-6zM40 36h2v2h-2zM48 36h4v2h-4zM54 36h2v2h-2zM58 36h2v4h-2zM68 36h6v2h-6zM6 38h4v2H6zM14 38h2v2h-2zM18 38h2v2h-2zM24 38h2v4h-2zM28 38h2v2h-2zM38 38h8v2h-8zM48 38h2v2h-2zM72 38h2v2h-2zM4 40h12v2H4zM18 40h4v2h-4zM30 40h4v2h-4zM38 40h2v2h-2zM44 40h4v2h-4zM50 40h2v2h-2zM54 40h2v2h-2zM58 40h8v2h-8zM68 40h6v2h-6zM4 42h8v2H4zM14 42h2v2h-2zM18 42h2v2h-2zM30 42h2v2h-2zM38 42h10v2H38zM50 42h4v2h-4zM56 42h2v2h-2zM62 42h2v4h-2zM70 42h2v2h-2zM0 44h4v2H0zM6 44h4v2H6zM12 44h8v2h-8zM22 44h4v2h-4zM30 44h4v2h-4zM36 44h2v2h-2zM42 44h4v2h-4zM50 44h10v2H50zM68 44h6v2h-6zM2 46h8v2H2zM14 46h2v2h-2zM20 46h4v2h-4zM30 46h6v2h-6zM40 46h4v2h-4zM52 46h10v2H52zM64 46h2v2h-2zM72 46h2v2h-2zM0 48h2v2H0zM4 48h16v2H4zM22 48h2v2h-2zM30 48h2v4h-2zM34 48h2v2h-2zM40 48h2v2h-2zM44 48h10v2H44zM60 48h6v2h-6zM68 48h6v2h-6zM0 50h4v2H0zM10 50h2v2h-2zM14 50h6v2h-6zM24 50h4v2h-4zM34 50h10v2H34zM46 50h4v2h-4zM62 50h2v4h-2zM70 50h2v2h-2zM0 52h2v6H0zM6 52h8v2H6zM18 52h2v2h-2zM26 52h6v2h-6zM34 52h2v2h-2zM42 52h4v2h-4zM50 52h2v2h-2zM54 52h6v2h-6zM68 52h6v2h-6zM4 54h2v2H4zM8 54h2v4H8zM16 54h2v2h-2zM24 54h4v2h-4zM34 54h4v2h-4zM40 54h10v2H40zM52 54h4v2h-4zM58 54h2v2h-2zM72 54h2v2h-2zM12 56h8v2h-8zM24 56h2v2h-2zM28 56h6v2h-6zM36 56h2v2h-2zM40 56h2v2h-2zM44 56h2v2h-2zM50 56h4v2h-4zM56 56h10v2H56zM68 56h2v2h-2zM16 58h4v4h-4zM30 58h4v2h-4zM38 58h6v2h-6zM46 58h2v2h-2zM50 58h2v2h-2zM54 58h4v2h-4zM64 58h2v4h-2zM0 60h14v2H0zM22 60h4v2h-4zM30 60h2v2h-2zM36 60h2v2h-2zM40 60h6v2h-6zM52 60h2v4h-2zM56 60h2v4h-2zM60 60h2v2h-2zM68 60h6v2h-6zM0 62h2v10H0zM12 62h2v10h-2zM20 62h4v2h-4zM28 62h2v2h-2zM32 62h6v2h-6zM40 62h4v2h-4zM46 62h2v2h-2zM64 62h4v2h-4zM70 62h4v2h-4zM4 64h6v6H4zM16 64h4v2h-4zM22 64h2v2h-2zM30 64h8v2h-8zM40 64h8v2h-8zM50 64h24v2H50zM16 66h2v2h-2zM20 66h2v2h-2zM24 66h6v2h-6zM38 66h4v2h-4zM44 66h2v4h-2zM56 66h6v2h-6zM64 66h2v2h-2zM68 66h2v2h-2zM72 66h2v2h-2zM16 68h4v2h-4zM26 68h8v2h-8zM36 68h2v2h-2zM52 68h2v2h-2zM62 68h2v2h-2zM66 68h8v2h-8zM16 70h2v4h-2zM24 70h4v2h-4zM38 70h2v2h-2zM42 70h4v2h-4zM54 70h4v2h-4zM60 70h2v2h-2zM72 70h2v2h-2zM0 72h14v2H0zM24 72h2v2h-2zM28 72h4v2h-4zM36 72h2v2h-2zM44 72h4v2h-4zM50 72h2v2h-2zM58 72h2v2h-2zM68 72h6v2h-6z"/></svg>